<svg id="visual" viewBox="0 0 960 540" width="960" height="540" xmlns="http://www.w3.org/2000/svg" xmlns:xlink="http://www.w3.org/1999/xlink" version="1.1"><path d="M0 361L17.8 366.7C35.7 372.3 71.3 383.7 106.8 376.7C142.3 369.7 177.7 344.3 213.2 332.7C248.7 321 284.3 323 320 329.8C355.7 336.7 391.3 348.3 426.8 359.5C462.3 370.7 497.7 381.3 533.2 387.5C568.7 393.7 604.3 395.3 640 380.7C675.7 366 711.3 335 746.8 325.7C782.3 316.3 817.7 328.7 853.2 331C888.7 333.3 924.3 325.7 942.2 321.8L960 318L960 541L942.2 541C924.3 541 888.7 541 853.2 541C817.7 541 782.3 541 746.8 541C711.3 541 675.7 541 640 541C604.3 541 568.7 541 533.2 541C497.7 541 462.3 541 426.8 541C391.3 541 355.7 541 320 541C284.3 541 248.7 541 213.2 541C177.7 541 142.3 541 106.8 541C71.3 541 35.7 541 17.8 541L0 541Z" fill="#94d2bd"></path><path d="M0 371L17.8 380.3C35.7 389.7 71.3 408.3 106.8 405.7C142.3 403 177.7 379 213.2 374.8C248.7 370.7 284.3 386.3 320 384.3C355.7 382.3 391.3 362.7 426.8 355.2C462.3 347.7 497.7 352.3 533.2 364.7C568.7 377 604.3 397 640 407.5C675.7 418 711.3 419 746.8 410.5C782.3 402 817.7 384 853.2 382.5C888.7 381 924.3 396 942.2 403.5L960 411L960 541L942.2 541C924.3 541 888.7 541 853.2 541C817.7 541 782.3 541 746.8 541C711.3 541 675.7 541 640 541C604.3 541 568.7 541 533.2 541C497.7 541 462.3 541 426.8 541C391.3 541 355.7 541 320 541C284.3 541 248.7 541 213.2 541C177.7 541 142.3 541 106.8 541C71.3 541 35.7 541 17.8 541L0 541Z" fill="#6fb5ab"></path><path d="M0 457L17.8 453.5C35.7 450 71.3 443 106.8 439.5C142.3 436 177.7 436 213.2 427.8C248.7 419.7 284.3 403.3 320 398C355.7 392.7 391.3 398.3 426.8 398.5C462.3 398.7 497.7 393.3 533.2 393.7C568.7 394 604.3 400 640 406.3C675.7 412.7 711.3 419.3 746.8 425.3C782.3 431.3 817.7 436.7 853.2 441.5C888.7 446.3 924.3 450.7 942.2 452.8L960 455L960 541L942.2 541C924.3 541 888.7 541 853.2 541C817.7 541 782.3 541 746.8 541C711.3 541 675.7 541 640 541C604.3 541 568.7 541 533.2 541C497.7 541 462.3 541 426.8 541C391.3 541 355.7 541 320 541C284.3 541 248.7 541 213.2 541C177.7 541 142.3 541 106.8 541C71.3 541 35.7 541 17.8 541L0 541Z" fill="#4c9899"></path><path d="M0 448L17.8 448.5C35.7 449 71.3 450 106.8 447.5C142.3 445 177.7 439 213.2 442.2C248.7 445.3 284.3 457.7 320 456.5C355.7 455.3 391.3 440.7 426.8 443.3C462.3 446 497.7 466 533.2 473C568.7 480 604.3 474 640 473.7C675.7 473.3 711.3 478.7 746.8 474.2C782.3 469.7 817.7 455.3 853.2 450.2C888.7 445 924.3 449 942.2 451L960 453L960 541L942.2 541C924.3 541 888.7 541 853.2 541C817.7 541 782.3 541 746.8 541C711.3 541 675.7 541 640 541C604.3 541 568.7 541 533.2 541C497.7 541 462.3 541 426.8 541C391.3 541 355.7 541 320 541C284.3 541 248.7 541 213.2 541C177.7 541 142.3 541 106.8 541C71.3 541 35.7 541 17.8 541L0 541Z" fill="#2a7b87"></path><path d="M0 497L17.8 496.8C35.7 496.7 71.3 496.3 106.8 499.2C142.3 502 177.7 508 213.2 507.7C248.7 507.3 284.3 500.7 320 501C355.7 501.3 391.3 508.7 426.8 511.7C462.3 514.7 497.7 513.3 533.2 510.3C568.7 507.3 604.3 502.7 640 498C675.7 493.3 711.3 488.7 746.8 491.2C782.3 493.7 817.7 503.3 853.2 501.8C888.7 500.3 924.3 487.7 942.2 481.3L960 475L960 541L942.2 541C924.3 541 888.7 541 853.2 541C817.7 541 782.3 541 746.8 541C711.3 541 675.7 541 640 541C604.3 541 568.7 541 533.2 541C497.7 541 462.3 541 426.8 541C391.3 541 355.7 541 320 541C284.3 541 248.7 541 213.2 541C177.7 541 142.3 541 106.8 541C71.3 541 35.7 541 17.8 541L0 541Z" fill="#005f73"></path></svg>