<svg id="visual" viewBox="0 0 675 900" width="675" height="900" xmlns="http://www.w3.org/2000/svg" xmlns:xlink="http://www.w3.org/1999/xlink" version="1.1"><rect x="0" y="0" width="675" height="900" fill="#001220"></rect><path d="M0 530L16 550.3C32 570.7 64 611.3 96.2 623.7C128.3 636 160.7 620 192.8 618C225 616 257 628 289.2 631C321.3 634 353.7 628 385.8 630.8C418 633.7 450 645.3 482.2 638.7C514.3 632 546.7 607 578.8 595.5C611 584 643 586 659 587L675 588L675 901L659 901C643 901 611 901 578.8 901C546.7 901 514.3 901 482.2 901C450 901 418 901 385.8 901C353.7 901 321.3 901 289.2 901C257 901 225 901 192.8 901C160.7 901 128.3 901 96.2 901C64 901 32 901 16 901L0 901Z" fill="#94d2bd"></path><path d="M0 681L16 683.3C32 685.7 64 690.3 96.2 694.3C128.3 698.3 160.7 701.7 192.8 698.7C225 695.7 257 686.3 289.2 665.8C321.3 645.3 353.7 613.7 385.8 615.7C418 617.7 450 653.3 482.2 657.2C514.3 661 546.7 633 578.8 632.8C611 632.7 643 660.3 659 674.2L675 688L675 901L659 901C643 901 611 901 578.8 901C546.7 901 514.3 901 482.2 901C450 901 418 901 385.8 901C353.7 901 321.3 901 289.2 901C257 901 225 901 192.8 901C160.7 901 128.3 901 96.2 901C64 901 32 901 16 901L0 901Z" fill="#76bbaf"></path><path d="M0 718L16 718.2C32 718.3 64 718.7 96.2 708.3C128.3 698 160.7 677 192.8 670.2C225 663.3 257 670.7 289.2 672C321.3 673.3 353.7 668.7 385.8 666.7C418 664.7 450 665.3 482.2 679C514.3 692.7 546.7 719.3 578.8 727.5C611 735.7 643 725.3 659 720.2L675 715L675 901L659 901C643 901 611 901 578.8 901C546.7 901 514.3 901 482.2 901C450 901 418 901 385.8 901C353.7 901 321.3 901 289.2 901C257 901 225 901 192.8 901C160.7 901 128.3 901 96.2 901C64 901 32 901 16 901L0 901Z" fill="#5aa4a0"></path><path d="M0 726L16 729.7C32 733.3 64 740.7 96.2 737.7C128.3 734.7 160.7 721.3 192.8 713.5C225 705.7 257 703.3 289.2 700.5C321.3 697.7 353.7 694.3 385.8 706.5C418 718.7 450 746.3 482.2 759.5C514.3 772.7 546.7 771.3 578.8 769.2C611 767 643 764 659 762.5L675 761L675 901L659 901C643 901 611 901 578.8 901C546.7 901 514.3 901 482.2 901C450 901 418 901 385.8 901C353.7 901 321.3 901 289.2 901C257 901 225 901 192.8 901C160.7 901 128.3 901 96.2 901C64 901 32 901 16 901L0 901Z" fill="#3e8c92"></path><path d="M0 812L16 801.7C32 791.3 64 770.7 96.2 760C128.3 749.3 160.7 748.7 192.8 759.2C225 769.7 257 791.3 289.2 803.2C321.3 815 353.7 817 385.8 818.2C418 819.3 450 819.7 482.2 817C514.3 814.3 546.7 808.7 578.8 799.8C611 791 643 779 659 773L675 767L675 901L659 901C643 901 611 901 578.8 901C546.7 901 514.3 901 482.2 901C450 901 418 901 385.8 901C353.7 901 321.3 901 289.2 901C257 901 225 901 192.8 901C160.7 901 128.3 901 96.2 901C64 901 32 901 16 901L0 901Z" fill="#237583"></path><path d="M0 842L16 843.5C32 845 64 848 96.2 841.7C128.3 835.3 160.7 819.7 192.8 819.5C225 819.3 257 834.7 289.2 836.2C321.3 837.7 353.7 825.3 385.8 819C418 812.7 450 812.3 482.2 810.7C514.3 809 546.7 806 578.8 809.2C611 812.3 643 821.7 659 826.3L675 831L675 901L659 901C643 901 611 901 578.8 901C546.7 901 514.3 901 482.2 901C450 901 418 901 385.8 901C353.7 901 321.3 901 289.2 901C257 901 225 901 192.8 901C160.7 901 128.3 901 96.2 901C64 901 32 901 16 901L0 901Z" fill="#005f73"></path></svg>